<svg xmlns="http://www.w3.org/2000/svg" viewBox="0 0 240 160">
  <defs>
    <linearGradient id="bg" x1="0" y1="0" x2="1" y2="1">
      <stop offset="0" stop-color="#232526"/>
      <stop offset="1" stop-color="#414345"/>
    </linearGradient>
    <linearGradient id="bird" x1="0" y1="0" x2="1" y2="1">
      <stop offset="0" stop-color="#7cc4ff"/>
      <stop offset="1" stop-color="#4a90d9"/>
    </linearGradient>
    <filter id="glow" x="-60%" y="-60%" width="220%" height="220%">
      <feGaussianBlur stdDeviation="5" result="b"/>
      <feMerge>
        <feMergeNode in="b"/>
        <feMergeNode in="SourceGraphic"/>
      </feMerge>
    </filter>
  </defs>
  <rect width="240" height="160" rx="16" fill="url(#bg)"/>
  <circle cx="205" cy="28" r="20" fill="#4caf50" opacity="0.25"/>
  <circle cx="28" cy="132" r="26" fill="#2196f3" opacity="0.25"/>
  <rect x="34" y="64" width="28" height="28" rx="6" fill="#ffd700" opacity="0.65" transform="rotate(-20 48 78)"/>
  <rect x="178" y="64" width="28" height="28" rx="6" fill="#4caf50" opacity="0.65" transform="rotate(15 192 78)"/>
  <g transform="rotate(-8 120 82)" filter="url(#glow)">
    <path d="M82,74 L58,66 L61,80 L58,94 L82,88 Z" fill="#4a90d9"/>
    <ellipse cx="120" cy="84" rx="42" ry="40" fill="url(#bird)"/>
    <ellipse cx="120" cy="84" rx="42" ry="40" fill="none" stroke="#ffffff" stroke-opacity="0.7" stroke-width="3"/>
    <ellipse cx="131" cy="102" rx="24" ry="22" fill="#eaf7ff" opacity="0.9"/>
    <ellipse cx="93" cy="88" rx="18" ry="12" fill="#4a90d9" transform="rotate(-20 93 88)"/>
    <path d="M104 44 L108 32 M118 42 L120 29" stroke="#7cc4ff" stroke-width="5" stroke-linecap="round"/>
    <circle cx="137" cy="70" r="11" fill="#fff"/>
    <circle cx="139" cy="72" r="5.5" fill="#1a1a2e"/>
    <circle cx="141" cy="70" r="2" fill="#fff"/>
    <ellipse cx="150" cy="88" rx="8" ry="5.5" fill="#ff9eb5" opacity="0.9"/>
    <path d="M158,76 L178,83 L158,92 Z" fill="#f4842c"/>
    <rect x="92" y="56" width="26" height="10" rx="5" fill="#ffffff" opacity="0.45"/>
  </g>
</svg>
